<svg width="20" height="20" viewBox="0 0 20 20" fill="none" xmlns="http://www.w3.org/2000/svg">
<path d="M10.8333 18.3337H4.16663C2.49996 18.3337 1.66663 17.5003 1.66663 15.8337V9.16699C1.66663 7.50033 2.49996 6.66699 4.16663 6.66699H8.33329V15.8337C8.33329 17.5003 9.16663 18.3337 10.8333 18.3337Z" stroke="#141521" stroke-width="1.5" stroke-miterlimit="10" stroke-linecap="round" stroke-linejoin="round"/>
<path d="M8.42495 3.33301C8.35828 3.58301 8.33329 3.85801 8.33329 4.16634V6.66634H4.16663V4.99967C4.16663 4.08301 4.91663 3.33301 5.83329 3.33301H8.42495Z" stroke="#141521" stroke-width="1.5" stroke-miterlimit="10" stroke-linecap="round" stroke-linejoin="round"/>
<path d="M11.6666 6.66699V10.8337" stroke="#141521" stroke-width="1.5" stroke-miterlimit="10" stroke-linecap="round" stroke-linejoin="round"/>
<path d="M15 6.66699V10.8337" stroke="#141521" stroke-width="1.5" stroke-miterlimit="10" stroke-linecap="round" stroke-linejoin="round"/>
<path d="M14.1666 14.167H12.5C12.0416 14.167 11.6666 14.542 11.6666 15.0003V18.3337H15V15.0003C15 14.542 14.625 14.167 14.1666 14.167Z" stroke="#141521" stroke-width="1.5" stroke-miterlimit="10" stroke-linecap="round" stroke-linejoin="round"/>
<path d="M5 10.833V14.1663" stroke="#141521" stroke-width="1.5" stroke-miterlimit="10" stroke-linecap="round" stroke-linejoin="round"/>
<path d="M8.33337 15.8337V4.16699C8.33337 2.50033 9.16671 1.66699 10.8334 1.66699H15.8334C17.5 1.66699 18.3334 2.50033 18.3334 4.16699V15.8337C18.3334 17.5003 17.5 18.3337 15.8334 18.3337H10.8334C9.16671 18.3337 8.33337 17.5003 8.33337 15.8337Z" stroke="#141521" stroke-width="1.5" stroke-miterlimit="10" stroke-linecap="round" stroke-linejoin="round"/>
</svg>
