<svg width="19" height="20" viewBox="0 0 19 20" fill="none" xmlns="http://www.w3.org/2000/svg">
<g clip-path="url(#clip0_35575_10500)">
<path d="M6.85381 19.0374C7.47389 19.6543 8.47499 19.6543 9.09189 19.0374L17.8105 10.8603C18.2979 10.4031 18.8789 9.53669 18.9208 8.86976C19.0329 7.06548 18.9539 3.61059 18.899 1.77889C18.8793 1.11129 18.318 0.551622 17.65 0.536277C15.3099 0.481867 10.3519 0.423751 9.89106 0.88505L0.289988 9.57131C-0.326462 10.1882 0.232761 11.7485 0.854029 12.3686L6.85381 19.0374ZM14.4938 3.18969C15.0167 2.66798 15.8622 2.66798 16.3856 3.18969C16.9073 3.71304 16.9073 4.5581 16.3856 5.07981C15.8619 5.60197 15.0164 5.60197 14.4938 5.07981C13.9717 4.5581 13.9717 3.71259 14.4938 3.18969Z" fill="#1FACF3"/>
</g>
<defs>
<clipPath id="clip0_35575_10500">
<rect width="19" height="19" fill="white" transform="matrix(-1 0 0 1 19 0.5)"/>
</clipPath>
</defs>
</svg>
