<svg width="240" height="39" viewBox="0 0 240 39" fill="none" xmlns="http://www.w3.org/2000/svg">
<path d="M19.103 38.206C29.6533 38.206 38.206 29.6533 38.206 19.103C38.206 8.5527 29.6533 0 19.103 0C8.5527 0 0 8.5527 0 19.103C0 29.6533 8.5527 38.206 19.103 38.206Z" fill="#00C2FF"/>
<path fill-rule="evenodd" clip-rule="evenodd" d="M19.2375 17.1149C18.8435 17.1011 18.4615 16.9763 18.1352 16.755C17.9501 16.6348 17.7762 16.4979 17.6159 16.3462C17.5922 16.3196 17.5677 16.2936 17.5421 16.2685C17.2699 16.0019 16.9073 15.8477 16.5265 15.8366C16.483 15.8366 16.4398 15.8366 16.397 15.8366C16.0162 15.8553 15.6563 16.0168 15.3893 16.289C15.2116 16.4731 15.0154 16.6385 14.8038 16.7824C14.4738 17.0281 14.0744 17.1627 13.663 17.1669C13.2516 17.1711 12.8495 17.0447 12.5145 16.8058C12.3002 16.6661 12.1009 16.5048 11.9197 16.3242C11.6524 16.0626 11.2979 15.9088 10.9242 15.8924C10.8046 15.887 10.6848 15.8955 10.5672 15.9179C10.5395 15.9834 10.5122 16.0496 10.4863 16.1159C10.2687 16.6692 10.1052 17.2423 9.99789 17.8271C9.7356 19.2545 9.81097 20.7235 10.218 22.1166C10.625 23.5097 11.3523 24.7882 12.3418 25.8499C13.3313 26.9116 14.5556 27.7271 15.9166 28.231C17.2776 28.7349 18.7377 28.9134 20.18 28.7521C21.6224 28.5908 23.007 28.0942 24.223 27.3021C25.4391 26.5099 26.453 25.4442 27.1835 24.1902C27.9141 22.9361 28.341 21.5285 28.4302 20.0799C28.5195 18.6313 28.2685 17.182 27.6973 15.8477C27.679 15.8053 27.6613 15.7635 27.6415 15.7211L27.5922 15.7232C27.2114 15.7418 26.8515 15.9033 26.5846 16.1756C26.4068 16.3596 26.2108 16.5249 25.9994 16.669C25.6694 16.9147 25.27 17.0494 24.8586 17.0536C24.4472 17.0578 24.0451 16.9313 23.7102 16.6924C23.4958 16.5525 23.2962 16.3912 23.1146 16.2109C22.8476 15.9492 22.4933 15.7954 22.1198 15.779C22.0627 15.7765 22.0056 15.7773 21.9485 15.7812C21.5764 15.8053 21.2262 15.9659 20.965 16.2321L20.9625 16.2346C20.9376 16.2602 20.9135 16.2864 20.8905 16.3134C20.7336 16.4688 20.5626 16.6094 20.3798 16.7334C20.0451 16.9722 19.6471 17.1066 19.2361 17.1196L19.2375 17.1149Z" fill="white"/>
<path fill-rule="evenodd" clip-rule="evenodd" d="M8.12587 15.2252C8.89295 13.0541 10.2866 11.1593 12.1306 9.78023C13.9746 8.40121 16.1861 7.59997 18.4855 7.47783C20.7849 7.35568 23.0689 7.91812 25.0486 9.09403C27.0283 10.2699 28.6149 12.0065 29.6076 14.0841C30.6004 16.1617 30.9548 18.4871 30.626 20.7661C30.2972 23.0451 29.3 25.1754 27.7605 26.8877C26.2209 28.6 24.2082 29.8173 21.9768 30.3857C19.7455 30.954 17.3957 30.848 15.2246 30.0809C13.7803 29.5755 12.4501 28.7895 11.3107 27.7682C10.1712 26.7468 9.24502 25.5102 8.58528 24.1296C7.92554 22.7489 7.54531 21.2514 7.46646 19.7233C7.38762 18.1951 7.61172 16.6664 8.12587 15.2252ZM31.2153 23.3831C32.0621 20.9871 32.1794 18.3939 31.5523 15.9313C30.9252 13.4687 29.5819 11.2473 27.6923 9.5482C25.8026 7.84907 23.4516 6.74847 20.9364 6.38559C18.4213 6.0227 15.855 6.41383 13.5622 7.50951C11.2693 8.60519 9.3529 10.3562 8.05526 12.5411C6.75762 14.726 6.13706 17.2467 6.27205 19.7843C6.40704 22.3219 7.29153 24.7624 8.81365 26.7973C10.3358 28.8322 12.4271 30.3701 14.8233 31.2163C18.0358 32.351 21.5674 32.1632 24.6415 30.6943C27.7155 29.2254 30.0803 26.5957 31.2156 23.3834L31.2153 23.3831Z" fill="white"/>
<path d="M59.3229 22.9696H68.3603V28.5366H53.5391V3.23208H59.3229V22.9696Z" fill="#567177"/>
<path d="M83.6726 10.4619H89.095V28.5366H83.6726V26.8376C82.3953 28.3076 80.5999 29.0427 78.2863 29.0427C75.9005 29.0427 73.8641 28.1269 72.1771 26.2953C70.4901 24.4397 69.6467 22.1743 69.6467 19.4993C69.6467 16.8242 70.4901 14.5709 72.1771 12.7393C73.8641 10.8837 75.9005 9.95585 78.2863 9.95585C80.5999 9.95585 82.3953 10.6909 83.6726 12.161V10.4619ZM76.262 22.7165C77.0573 23.5118 78.0935 23.9095 79.3708 23.9095C80.6481 23.9095 81.6844 23.5118 82.4797 22.7165C83.2749 21.9213 83.6726 20.8488 83.6726 19.4993C83.6726 18.1497 83.2749 17.0773 82.4797 16.282C81.6844 15.4867 80.6481 15.089 79.3708 15.089C78.0935 15.089 77.0573 15.4867 76.262 16.282C75.4667 17.0773 75.0691 18.1497 75.0691 19.4993C75.0691 20.8488 75.4667 21.9213 76.262 22.7165Z" fill="#567177"/>
<path d="M104.749 10.4619H110.172V28.5366H104.749V26.8376C103.665 28.3076 101.942 29.0427 99.5799 29.0427C97.652 29.0427 96.0373 28.3799 94.7359 27.0545C93.4587 25.729 92.82 23.8974 92.82 21.5598V10.4619H98.2424V20.7645C98.2424 21.8249 98.5316 22.6442 99.11 23.2226C99.7125 23.7769 100.472 24.0541 101.387 24.0541C102.424 24.0541 103.243 23.7408 103.846 23.1142C104.448 22.4876 104.749 21.5598 104.749 20.3307V10.4619Z" fill="#567177"/>
<path d="M124.74 9.95585C126.668 9.95585 128.271 10.6186 129.548 11.9441C130.849 13.2695 131.5 15.1011 131.5 17.4387V28.5366H126.078V18.234C126.078 17.1736 125.776 16.3663 125.174 15.812C124.596 15.2336 123.848 14.9444 122.933 14.9444C121.896 14.9444 121.077 15.2577 120.475 15.8843C119.872 16.5109 119.571 17.4387 119.571 18.6678V28.5366H114.148V10.4619H119.571V12.161C120.655 10.6909 122.378 9.95585 124.74 9.95585Z" fill="#567177"/>
<path d="M148.346 3.23208H153.768V28.5366H148.346V26.8376C147.069 28.3076 145.273 29.0427 142.96 29.0427C140.574 29.0427 138.537 28.1269 136.85 26.2953C135.163 24.4397 134.32 22.1743 134.32 19.4993C134.32 16.8242 135.163 14.5709 136.85 12.7393C138.537 10.8837 140.574 9.95585 142.96 9.95585C145.273 9.95585 147.069 10.6909 148.346 12.161V3.23208ZM140.935 22.7165C141.731 23.5118 142.767 23.9095 144.044 23.9095C145.321 23.9095 146.358 23.5118 147.153 22.7165C147.948 21.9213 148.346 20.8488 148.346 19.4993C148.346 18.1497 147.948 17.0773 147.153 16.282C146.358 15.4867 145.321 15.089 144.044 15.089C142.767 15.089 141.731 15.4867 140.935 16.282C140.14 17.0773 139.742 18.1497 139.742 19.4993C139.742 20.8488 140.14 21.9213 140.935 22.7165Z" fill="#567177"/>
<path d="M163.169 13.6792C163.506 12.5224 164.181 11.6428 165.193 11.0403C166.229 10.4137 167.362 10.1004 168.591 10.1004V16.2458C167.266 16.0289 166.025 16.2579 164.868 16.9327C163.735 17.5833 163.169 18.7281 163.169 20.3668V28.5366H157.746V10.4619H163.169V13.6792Z" fill="#567177"/>
<path d="M182.866 10.4619H188.65L182.468 27.9943C181.456 30.8381 180.119 32.8745 178.456 34.1036C176.817 35.3326 174.72 35.8869 172.166 35.7664V30.7055C173.419 30.7055 174.383 30.4766 175.058 30.0187C175.732 29.5849 176.275 28.8137 176.684 27.7051L169.491 10.4619H175.455L179.468 21.5236L182.866 10.4619Z" fill="#567177"/>
<path d="M201.456 9.95585C203.842 9.95585 205.879 10.8837 207.566 12.7393C209.253 14.5709 210.096 16.8242 210.096 19.4993C210.096 22.1743 209.253 24.4397 207.566 26.2953C205.879 28.1269 203.842 29.0427 201.456 29.0427C199.143 29.0427 197.348 28.3076 196.07 26.8376V28.5366H190.648V3.23208H196.07V12.161C197.348 10.6909 199.143 9.95585 201.456 9.95585ZM197.263 22.7165C198.083 23.5118 199.119 23.9095 200.372 23.9095C201.625 23.9095 202.649 23.5118 203.445 22.7165C204.264 21.9213 204.674 20.8488 204.674 19.4993C204.674 18.1497 204.264 17.0773 203.445 16.282C202.649 15.4867 201.625 15.089 200.372 15.089C199.119 15.089 198.083 15.4867 197.263 16.282C196.468 17.0773 196.07 18.1497 196.07 19.4993C196.07 20.8488 196.468 21.9213 197.263 22.7165Z" fill="#567177"/>
<path d="M218.159 7.93149C217.533 8.55808 216.773 8.87137 215.882 8.87137C214.99 8.87137 214.219 8.55808 213.568 7.93149C212.942 7.2808 212.628 6.50962 212.628 5.61794C212.628 4.72626 212.942 3.96712 213.568 3.34053C214.219 2.68985 214.99 2.3645 215.882 2.3645C216.773 2.3645 217.533 2.68985 218.159 3.34053C218.81 3.96712 219.135 4.72626 219.135 5.61794C219.135 6.50962 218.81 7.2808 218.159 7.93149ZM213.171 28.5366V10.4619H218.593V28.5366H213.171Z" fill="#567177"/>
<path d="M233.153 9.95585C235.081 9.95585 236.683 10.6186 237.96 11.9441C239.262 13.2695 239.913 15.1011 239.913 17.4387V28.5366H234.49V18.234C234.49 17.1736 234.189 16.3663 233.586 15.812C233.008 15.2336 232.261 14.9444 231.345 14.9444C230.309 14.9444 229.489 15.2577 228.887 15.8843C228.285 16.5109 227.983 17.4387 227.983 18.6678V28.5366H222.561V10.4619H227.983V12.161C229.068 10.6909 230.791 9.95585 233.153 9.95585Z" fill="#567177"/>
</svg>
