<svg width="28" height="28" viewBox="0 0 28 28" fill="none" xmlns="http://www.w3.org/2000/svg">
<path d="M22.5633 16.9052L21.3967 14.9685C21.1517 14.5368 20.93 13.7202 20.93 13.2418V10.2902C20.93 7.5485 19.32 5.18016 16.9983 4.07183C16.3917 2.9985 15.2717 2.3335 13.9883 2.3335C12.7167 2.3335 11.5733 3.02183 10.9667 4.10683C8.69168 5.2385 7.11668 7.5835 7.11668 10.2902V13.2418C7.11668 13.7202 6.89501 14.5368 6.65001 14.9568L5.47168 16.9052C5.00501 17.6868 4.90001 18.5502 5.19168 19.3435C5.47168 20.1252 6.13668 20.7318 7.00001 21.0235C9.26335 21.7935 11.6433 22.1668 14.0233 22.1668C16.4033 22.1668 18.7833 21.7935 21.0467 21.0352C21.8633 20.7668 22.4933 20.1485 22.7967 19.3435C23.1 18.5385 23.0183 17.6518 22.5633 16.9052Z" fill="#6E97AE"/>
<path d="M17.3016 23.3452C16.8116 24.6985 15.5166 25.6668 14 25.6668C13.0783 25.6668 12.1683 25.2935 11.5266 24.6285C11.1533 24.2785 10.8733 23.8118 10.71 23.3335C10.8616 23.3568 11.0133 23.3685 11.1766 23.3918C11.445 23.4268 11.725 23.4618 12.005 23.4852C12.67 23.5435 13.3466 23.5785 14.0233 23.5785C14.6883 23.5785 15.3533 23.5435 16.0066 23.4852C16.2516 23.4618 16.4966 23.4502 16.73 23.4152C16.9166 23.3918 17.1033 23.3685 17.3016 23.3452Z" fill="#6E97AE"/>
</svg>
