<svg width="310" height="78" viewBox="0 0 310 78" fill="none" xmlns="http://www.w3.org/2000/svg">
<path d="M19.2297 28L14.4197 9.8H17.9817L21.2577 24.282L25.1057 9.8H28.7717L32.5157 24.282L35.7917 9.8H39.3797L34.4397 28H30.4877L26.8737 14.506L23.1557 28H19.2297ZM47.9085 28.312C46.6085 28.312 45.4559 28.0347 44.4505 27.48C43.4452 26.9253 42.6565 26.1453 42.0845 25.14C41.5125 24.1347 41.2265 22.9733 41.2265 21.656C41.2265 20.3213 41.5039 19.134 42.0585 18.094C42.6305 17.054 43.4105 16.248 44.3985 15.676C45.4039 15.0867 46.5825 14.792 47.9345 14.792C49.1999 14.792 50.3179 15.0693 51.2885 15.624C52.2592 16.1787 53.0132 16.9413 53.5505 17.912C54.1052 18.8653 54.3825 19.9313 54.3825 21.11C54.3825 21.3007 54.3739 21.5 54.3565 21.708C54.3565 21.916 54.3479 22.1327 54.3305 22.358H44.5285C44.5979 23.3633 44.9445 24.152 45.5685 24.724C46.2099 25.296 46.9812 25.582 47.8825 25.582C48.5585 25.582 49.1219 25.4347 49.5725 25.14C50.0405 24.828 50.3872 24.4293 50.6125 23.944H53.9925C53.7499 24.7587 53.3425 25.504 52.7705 26.18C52.2159 26.8387 51.5225 27.3587 50.6905 27.74C49.8759 28.1213 48.9485 28.312 47.9085 28.312ZM47.9345 17.496C47.1199 17.496 46.4005 17.73 45.7765 18.198C45.1525 18.6487 44.7539 19.342 44.5805 20.278H51.0025C50.9505 19.4287 50.6385 18.7527 50.0665 18.25C49.4945 17.7473 48.7839 17.496 47.9345 17.496ZM58.4816 28V9.28H61.8096V28H58.4816ZM72.8281 28.312C71.5108 28.312 70.3495 28.026 69.3441 27.454C68.3388 26.882 67.5415 26.0847 66.9521 25.062C66.3801 24.0393 66.0941 22.8693 66.0941 21.552C66.0941 20.2347 66.3801 19.0647 66.9521 18.042C67.5415 17.0193 68.3388 16.222 69.3441 15.65C70.3495 15.078 71.5108 14.792 72.8281 14.792C74.4748 14.792 75.8615 15.2253 76.9881 16.092C78.1148 16.9413 78.8341 18.12 79.1461 19.628H75.6361C75.4628 19.004 75.1161 18.5187 74.5961 18.172C74.0935 17.808 73.4955 17.626 72.8021 17.626C71.8835 17.626 71.1035 17.9727 70.4621 18.666C69.8208 19.3593 69.5001 20.3213 69.5001 21.552C69.5001 22.7827 69.8208 23.7447 70.4621 24.438C71.1035 25.1313 71.8835 25.478 72.8021 25.478C73.4955 25.478 74.0935 25.3047 74.5961 24.958C75.1161 24.6113 75.4628 24.1173 75.6361 23.476H79.1461C78.8341 24.932 78.1148 26.102 76.9881 26.986C75.8615 27.87 74.4748 28.312 72.8281 28.312ZM89.588 28.312C88.34 28.312 87.2133 28.026 86.208 27.454C85.22 26.882 84.4313 26.0933 83.842 25.088C83.27 24.0653 82.984 22.8867 82.984 21.552C82.984 20.2173 83.2786 19.0473 83.868 18.042C84.4573 17.0193 85.246 16.222 86.234 15.65C87.2393 15.078 88.366 14.792 89.614 14.792C90.8446 14.792 91.954 15.078 92.942 15.65C93.9473 16.222 94.736 17.0193 95.308 18.042C95.8973 19.0473 96.192 20.2173 96.192 21.552C96.192 22.8867 95.8973 24.0653 95.308 25.088C94.736 26.0933 93.9473 26.882 92.942 27.454C91.9366 28.026 90.8186 28.312 89.588 28.312ZM89.588 25.426C90.4546 25.426 91.2086 25.1053 91.85 24.464C92.4913 23.8053 92.812 22.8347 92.812 21.552C92.812 20.2693 92.4913 19.3073 91.85 18.666C91.2086 18.0073 90.4633 17.678 89.614 17.678C88.73 17.678 87.9673 18.0073 87.326 18.666C86.702 19.3073 86.39 20.2693 86.39 21.552C86.39 22.8347 86.702 23.8053 87.326 24.464C87.9673 25.1053 88.7213 25.426 89.588 25.426ZM100.468 28V15.104H103.406L103.692 16.846C104.108 16.222 104.654 15.728 105.33 15.364C106.023 14.9827 106.82 14.792 107.722 14.792C109.715 14.792 111.128 15.5633 111.96 17.106C112.428 16.3953 113.052 15.832 113.832 15.416C114.629 15 115.496 14.792 116.432 14.792C118.113 14.792 119.404 15.2947 120.306 16.3C121.207 17.3053 121.658 18.7787 121.658 20.72V28H118.33V21.032C118.33 19.9227 118.113 19.0733 117.68 18.484C117.264 17.8947 116.614 17.6 115.73 17.6C114.828 17.6 114.1 17.9293 113.546 18.588C113.008 19.2467 112.74 20.1653 112.74 21.344V28H109.412V21.032C109.412 19.9227 109.195 19.0733 108.762 18.484C108.328 17.8947 107.661 17.6 106.76 17.6C105.876 17.6 105.156 17.9293 104.602 18.588C104.064 19.2467 103.796 20.1653 103.796 21.344V28H100.468ZM132.383 28.312C131.083 28.312 129.93 28.0347 128.925 27.48C127.92 26.9253 127.131 26.1453 126.559 25.14C125.987 24.1347 125.701 22.9733 125.701 21.656C125.701 20.3213 125.978 19.134 126.533 18.094C127.105 17.054 127.885 16.248 128.873 15.676C129.878 15.0867 131.057 14.792 132.409 14.792C133.674 14.792 134.792 15.0693 135.763 15.624C136.734 16.1787 137.488 16.9413 138.025 17.912C138.58 18.8653 138.857 19.9313 138.857 21.11C138.857 21.3007 138.848 21.5 138.831 21.708C138.831 21.916 138.822 22.1327 138.805 22.358H129.003C129.072 23.3633 129.419 24.152 130.043 24.724C130.684 25.296 131.456 25.582 132.357 25.582C133.033 25.582 133.596 25.4347 134.047 25.14C134.515 24.828 134.862 24.4293 135.087 23.944H138.467C138.224 24.7587 137.817 25.504 137.245 26.18C136.69 26.8387 135.997 27.3587 135.165 27.74C134.35 28.1213 133.423 28.312 132.383 28.312ZM132.409 17.496C131.594 17.496 130.875 17.73 130.251 18.198C129.627 18.6487 129.228 19.342 129.055 20.278H135.477C135.425 19.4287 135.113 18.7527 134.541 18.25C133.969 17.7473 133.258 17.496 132.409 17.496ZM150.53 28V9.8H157.836C159.725 9.8 161.164 10.242 162.152 11.126C163.157 11.9927 163.66 13.1107 163.66 14.48C163.66 15.624 163.348 16.5427 162.724 17.236C162.117 17.912 161.372 18.3713 160.488 18.614C161.528 18.822 162.386 19.342 163.062 20.174C163.738 20.9887 164.076 21.942 164.076 23.034C164.076 24.4727 163.556 25.66 162.516 26.596C161.476 27.532 160.002 28 158.096 28H150.53ZM153.858 17.444H157.342C158.278 17.444 158.997 17.2273 159.5 16.794C160.002 16.3607 160.254 15.7453 160.254 14.948C160.254 14.1853 160.002 13.5873 159.5 13.154C159.014 12.7033 158.278 12.478 157.29 12.478H153.858V17.444ZM153.858 25.296H157.576C158.564 25.296 159.326 25.0707 159.864 24.62C160.418 24.152 160.696 23.502 160.696 22.67C160.696 21.8207 160.41 21.1533 159.838 20.668C159.266 20.1827 158.494 19.94 157.524 19.94H153.858V25.296ZM172.6 28.312C171.491 28.312 170.581 28.1387 169.87 27.792C169.159 27.428 168.631 26.9513 168.284 26.362C167.937 25.7727 167.764 25.1227 167.764 24.412C167.764 23.216 168.232 22.2453 169.168 21.5C170.104 20.7547 171.508 20.382 173.38 20.382H176.656V20.07C176.656 19.186 176.405 18.536 175.902 18.12C175.399 17.704 174.775 17.496 174.03 17.496C173.354 17.496 172.765 17.6607 172.262 17.99C171.759 18.302 171.447 18.77 171.326 19.394H168.076C168.163 18.458 168.475 17.6433 169.012 16.95C169.567 16.2567 170.277 15.728 171.144 15.364C172.011 14.9827 172.981 14.792 174.056 14.792C175.893 14.792 177.341 15.2513 178.398 16.17C179.455 17.0887 179.984 18.3887 179.984 20.07V28H177.15L176.838 25.92C176.457 26.6133 175.919 27.1853 175.226 27.636C174.55 28.0867 173.675 28.312 172.6 28.312ZM173.354 25.712C174.307 25.712 175.044 25.4 175.564 24.776C176.101 24.152 176.439 23.3807 176.578 22.462H173.744C172.86 22.462 172.227 22.6267 171.846 22.956C171.465 23.268 171.274 23.658 171.274 24.126C171.274 24.6287 171.465 25.0187 171.846 25.296C172.227 25.5733 172.73 25.712 173.354 25.712ZM190.778 28.312C189.46 28.312 188.299 28.026 187.294 27.454C186.288 26.882 185.491 26.0847 184.902 25.062C184.33 24.0393 184.044 22.8693 184.044 21.552C184.044 20.2347 184.33 19.0647 184.902 18.042C185.491 17.0193 186.288 16.222 187.294 15.65C188.299 15.078 189.46 14.792 190.778 14.792C192.424 14.792 193.811 15.2253 194.938 16.092C196.064 16.9413 196.784 18.12 197.096 19.628H193.586C193.412 19.004 193.066 18.5187 192.546 18.172C192.043 17.808 191.445 17.626 190.752 17.626C189.833 17.626 189.053 17.9727 188.412 18.666C187.77 19.3593 187.45 20.3213 187.45 21.552C187.45 22.7827 187.77 23.7447 188.412 24.438C189.053 25.1313 189.833 25.478 190.752 25.478C191.445 25.478 192.043 25.3047 192.546 24.958C193.066 24.6113 193.412 24.1173 193.586 23.476H197.096C196.784 24.932 196.064 26.102 194.938 26.986C193.811 27.87 192.424 28.312 190.778 28.312ZM201.35 28V9.28H204.678V20.33L209.254 15.104H213.206L207.928 20.98L214.064 28H209.904L204.678 21.526V28H201.35ZM218.129 22.254L217.765 9.8H221.327L220.937 22.254H218.129ZM219.611 28.182C218.987 28.182 218.476 27.9913 218.077 27.61C217.696 27.2287 217.505 26.7693 217.505 26.232C217.505 25.6773 217.696 25.2093 218.077 24.828C218.476 24.4467 218.987 24.256 219.611 24.256C220.2 24.256 220.686 24.4467 221.067 24.828C221.466 25.2093 221.665 25.6773 221.665 26.232C221.665 26.7693 221.466 27.2287 221.067 27.61C220.686 27.9913 220.2 28.182 219.611 28.182ZM241.95 28.312C240.234 28.312 238.734 27.922 237.452 27.142C236.169 26.362 235.172 25.2787 234.462 23.892C233.751 22.488 233.396 20.8587 233.396 19.004C233.396 17.132 233.76 15.4853 234.488 14.064C235.233 12.6253 236.282 11.5073 237.634 10.71C239.003 9.89533 240.624 9.488 242.496 9.488C244.628 9.488 246.396 9.99933 247.8 11.022C249.204 12.0447 250.114 13.4573 250.53 15.26H246.812C246.534 14.4107 246.032 13.752 245.304 13.284C244.576 12.7987 243.64 12.556 242.496 12.556C240.676 12.556 239.272 13.1367 238.284 14.298C237.296 15.442 236.802 17.0193 236.802 19.03C236.802 21.0407 237.287 22.6007 238.258 23.71C239.246 24.802 240.58 25.348 242.262 25.348C243.908 25.348 245.148 24.906 245.98 24.022C246.829 23.1207 247.34 21.942 247.514 20.486H242.912V17.99H250.868V28H247.8L247.54 25.608C246.95 26.4747 246.214 27.142 245.33 27.61C244.446 28.078 243.319 28.312 241.95 28.312ZM255.325 28V9.28H258.653V28H255.325ZM267.799 28.312C266.69 28.312 265.78 28.1387 265.069 27.792C264.359 27.428 263.83 26.9513 263.483 26.362C263.137 25.7727 262.963 25.1227 262.963 24.412C262.963 23.216 263.431 22.2453 264.367 21.5C265.303 20.7547 266.707 20.382 268.579 20.382H271.855V20.07C271.855 19.186 271.604 18.536 271.101 18.12C270.599 17.704 269.975 17.496 269.229 17.496C268.553 17.496 267.964 17.6607 267.461 17.99C266.959 18.302 266.647 18.77 266.525 19.394H263.275C263.362 18.458 263.674 17.6433 264.211 16.95C264.766 16.2567 265.477 15.728 266.343 15.364C267.21 14.9827 268.181 14.792 269.255 14.792C271.093 14.792 272.54 15.2513 273.597 16.17C274.655 17.0887 275.183 18.3887 275.183 20.07V28H272.349L272.037 25.92C271.656 26.6133 271.119 27.1853 270.425 27.636C269.749 28.0867 268.874 28.312 267.799 28.312ZM268.553 25.712C269.507 25.712 270.243 25.4 270.763 24.776C271.301 24.152 271.639 23.3807 271.777 22.462H268.943C268.059 22.462 267.427 22.6267 267.045 22.956C266.664 23.268 266.473 23.658 266.473 24.126C266.473 24.6287 266.664 25.0187 267.045 25.296C267.427 25.5733 267.929 25.712 268.553 25.712ZM285.587 28.312C284.374 28.312 283.291 28.0173 282.337 27.428C281.384 26.8387 280.63 26.0327 280.075 25.01C279.521 23.9873 279.243 22.826 279.243 21.526C279.243 20.226 279.521 19.0733 280.075 18.068C280.63 17.0453 281.384 16.248 282.337 15.676C283.291 15.0867 284.374 14.792 285.587 14.792C286.558 14.792 287.407 14.974 288.135 15.338C288.863 15.702 289.453 16.2133 289.903 16.872V9.28H293.231V28H290.267L289.903 26.154C289.487 26.726 288.933 27.2287 288.239 27.662C287.563 28.0953 286.679 28.312 285.587 28.312ZM286.289 25.4C287.364 25.4 288.239 25.0447 288.915 24.334C289.609 23.606 289.955 22.6787 289.955 21.552C289.955 20.4253 289.609 19.5067 288.915 18.796C288.239 18.068 287.364 17.704 286.289 17.704C285.232 17.704 284.357 18.0593 283.663 18.77C282.97 19.4807 282.623 20.3993 282.623 21.526C282.623 22.6527 282.97 23.58 283.663 24.308C284.357 25.036 285.232 25.4 286.289 25.4ZM37.958 67V51.478H32.654V48.8H46.616V51.478H41.286V67H37.958ZM54.1553 67.312C52.9073 67.312 51.7807 67.026 50.7753 66.454C49.7873 65.882 48.9987 65.0933 48.4093 64.088C47.8373 63.0653 47.5513 61.8867 47.5513 60.552C47.5513 59.2173 47.846 58.0473 48.4353 57.042C49.0247 56.0193 49.8133 55.222 50.8013 54.65C51.8067 54.078 52.9333 53.792 54.1813 53.792C55.412 53.792 56.5213 54.078 57.5093 54.65C58.5147 55.222 59.3033 56.0193 59.8753 57.042C60.4647 58.0473 60.7593 59.2173 60.7593 60.552C60.7593 61.8867 60.4647 63.0653 59.8753 64.088C59.3033 65.0933 58.5147 65.882 57.5093 66.454C56.504 67.026 55.386 67.312 54.1553 67.312ZM54.1553 64.426C55.022 64.426 55.776 64.1053 56.4173 63.464C57.0587 62.8053 57.3793 61.8347 57.3793 60.552C57.3793 59.2693 57.0587 58.3073 56.4173 57.666C55.776 57.0073 55.0307 56.678 54.1813 56.678C53.2973 56.678 52.5347 57.0073 51.8933 57.666C51.2693 58.3073 50.9573 59.2693 50.9573 60.552C50.9573 61.8347 51.2693 62.8053 51.8933 63.464C52.5347 64.1053 53.2887 64.426 54.1553 64.426ZM78.8222 67.312C77.4876 67.312 76.3089 67.0867 75.2862 66.636C74.2636 66.168 73.4576 65.5093 72.8682 64.66C72.2789 63.7933 71.9756 62.7447 71.9582 61.514H75.4682C75.5029 62.3633 75.8062 63.0827 76.3782 63.672C76.9676 64.244 77.7736 64.53 78.7962 64.53C79.6802 64.53 80.3822 64.322 80.9022 63.906C81.4222 63.4727 81.6822 62.9007 81.6822 62.19C81.6822 61.4447 81.4482 60.864 80.9802 60.448C80.5296 60.032 79.9229 59.694 79.1602 59.434C78.3976 59.174 77.5829 58.8967 76.7162 58.602C75.3122 58.1167 74.2376 57.4927 73.4922 56.73C72.7642 55.9673 72.4002 54.9533 72.4002 53.688C72.3829 52.6133 72.6342 51.6947 73.1542 50.932C73.6916 50.152 74.4196 49.554 75.3382 49.138C76.2569 48.7047 77.3142 48.488 78.5102 48.488C79.7236 48.488 80.7896 48.7047 81.7082 49.138C82.6442 49.5713 83.3722 50.178 83.8922 50.958C84.4296 51.738 84.7156 52.6653 84.7502 53.74H81.1882C81.1709 53.0987 80.9196 52.5353 80.4342 52.05C79.9662 51.5473 79.3076 51.296 78.4582 51.296C77.7302 51.2787 77.1149 51.4607 76.6122 51.842C76.1269 52.206 75.8842 52.7433 75.8842 53.454C75.8842 54.0607 76.0749 54.546 76.4562 54.91C76.8376 55.2567 77.3576 55.5513 78.0162 55.794C78.6749 56.0367 79.4289 56.2967 80.2782 56.574C81.1796 56.886 82.0029 57.25 82.7482 57.666C83.4936 58.082 84.0916 58.6367 84.5422 59.33C84.9929 60.006 85.2182 60.8813 85.2182 61.956C85.2182 62.9093 84.9756 63.7933 84.4902 64.608C84.0049 65.4227 83.2856 66.0813 82.3322 66.584C81.3789 67.0693 80.2089 67.312 78.8222 67.312ZM95.6099 67.312C94.3099 67.312 93.1572 67.0347 92.1519 66.48C91.1466 65.9253 90.3579 65.1453 89.7859 64.14C89.2139 63.1347 88.9279 61.9733 88.9279 60.656C88.9279 59.3213 89.2052 58.134 89.7599 57.094C90.3319 56.054 91.1119 55.248 92.0999 54.676C93.1052 54.0867 94.2839 53.792 95.6359 53.792C96.9012 53.792 98.0192 54.0693 98.9899 54.624C99.9606 55.1787 100.715 55.9413 101.252 56.912C101.807 57.8653 102.084 58.9313 102.084 60.11C102.084 60.3007 102.075 60.5 102.058 60.708C102.058 60.916 102.049 61.1327 102.032 61.358H92.2299C92.2992 62.3633 92.6459 63.152 93.2699 63.724C93.9112 64.296 94.6826 64.582 95.5839 64.582C96.2599 64.582 96.8232 64.4347 97.2739 64.14C97.7419 63.828 98.0886 63.4293 98.3139 62.944H101.694C101.451 63.7587 101.044 64.504 100.472 65.18C99.9172 65.8387 99.2239 66.3587 98.3919 66.74C97.5772 67.1213 96.6499 67.312 95.6099 67.312ZM95.6359 56.496C94.8212 56.496 94.1019 56.73 93.4779 57.198C92.8539 57.6487 92.4552 58.342 92.2819 59.278H98.7039C98.6519 58.4287 98.3399 57.7527 97.7679 57.25C97.1959 56.7473 96.4852 56.496 95.6359 56.496ZM112.449 67.312C111.149 67.312 109.996 67.0347 108.991 66.48C107.986 65.9253 107.197 65.1453 106.625 64.14C106.053 63.1347 105.767 61.9733 105.767 60.656C105.767 59.3213 106.044 58.134 106.599 57.094C107.171 56.054 107.951 55.248 108.939 54.676C109.944 54.0867 111.123 53.792 112.475 53.792C113.74 53.792 114.858 54.0693 115.829 54.624C116.8 55.1787 117.554 55.9413 118.091 56.912C118.646 57.8653 118.923 58.9313 118.923 60.11C118.923 60.3007 118.914 60.5 118.897 60.708C118.897 60.916 118.888 61.1327 118.871 61.358H109.069C109.138 62.3633 109.485 63.152 110.109 63.724C110.75 64.296 111.522 64.582 112.423 64.582C113.099 64.582 113.662 64.4347 114.113 64.14C114.581 63.828 114.928 63.4293 115.153 62.944H118.533C118.29 63.7587 117.883 64.504 117.311 65.18C116.756 65.8387 116.063 66.3587 115.231 66.74C114.416 67.1213 113.489 67.312 112.449 67.312ZM112.475 56.496C111.66 56.496 110.941 56.73 110.317 57.198C109.693 57.6487 109.294 58.342 109.121 59.278H115.543C115.491 58.4287 115.179 57.7527 114.607 57.25C114.035 56.7473 113.324 56.496 112.475 56.496ZM135.301 67V60.526L129.191 48.8H132.961L136.991 57.198L140.995 48.8H144.713L138.629 60.526V67H135.301ZM151.945 67.312C150.697 67.312 149.57 67.026 148.565 66.454C147.577 65.882 146.788 65.0933 146.199 64.088C145.627 63.0653 145.341 61.8867 145.341 60.552C145.341 59.2173 145.635 58.0473 146.225 57.042C146.814 56.0193 147.603 55.222 148.591 54.65C149.596 54.078 150.723 53.792 151.971 53.792C153.201 53.792 154.311 54.078 155.299 54.65C156.304 55.222 157.093 56.0193 157.665 57.042C158.254 58.0473 158.549 59.2173 158.549 60.552C158.549 61.8867 158.254 63.0653 157.665 64.088C157.093 65.0933 156.304 65.882 155.299 66.454C154.293 67.026 153.175 67.312 151.945 67.312ZM151.945 64.426C152.811 64.426 153.565 64.1053 154.207 63.464C154.848 62.8053 155.169 61.8347 155.169 60.552C155.169 59.2693 154.848 58.3073 154.207 57.666C153.565 57.0073 152.82 56.678 151.971 56.678C151.087 56.678 150.324 57.0073 149.683 57.666C149.059 58.3073 148.747 59.2693 148.747 60.552C148.747 61.8347 149.059 62.8053 149.683 63.464C150.324 64.1053 151.078 64.426 151.945 64.426ZM167.66 67.312C166.048 67.312 164.8 66.8093 163.916 65.804C163.05 64.7987 162.616 63.3253 162.616 61.384V54.104H165.918V61.072C165.918 62.1813 166.144 63.0307 166.594 63.62C167.045 64.2093 167.756 64.504 168.726 64.504C169.645 64.504 170.399 64.1747 170.988 63.516C171.595 62.8573 171.898 61.9387 171.898 60.76V54.104H175.226V67H172.288L172.028 64.816C171.63 65.5787 171.049 66.1853 170.286 66.636C169.541 67.0867 168.666 67.312 167.66 67.312ZM178.617 70.016L180.099 63.542H183.323L180.801 70.016H178.617ZM193.664 67L200.32 48.8H204.064L210.72 67H207.184L205.728 62.788H198.63L197.148 67H193.664ZM199.54 60.188H204.818L202.166 52.622L199.54 60.188ZM219.746 63.152C219.122 63.152 218.541 63.0827 218.004 62.944L217.042 63.906C217.337 64.062 217.735 64.192 218.238 64.296C218.741 64.4 219.555 64.504 220.682 64.608C222.398 64.764 223.646 65.1713 224.426 65.83C225.206 66.4887 225.596 67.3987 225.596 68.56C225.596 69.3227 225.388 70.042 224.972 70.718C224.556 71.4113 223.915 71.966 223.048 72.382C222.181 72.8153 221.072 73.032 219.72 73.032C217.883 73.032 216.401 72.6853 215.274 71.992C214.147 71.316 213.584 70.2933 213.584 68.924C213.584 67.7627 214.147 66.7573 215.274 65.908C214.927 65.752 214.624 65.5873 214.364 65.414C214.121 65.2407 213.905 65.0587 213.714 64.868V64.27L215.976 61.878C214.971 60.994 214.468 59.8587 214.468 58.472C214.468 57.6053 214.676 56.8167 215.092 56.106C215.525 55.3953 216.132 54.832 216.912 54.416C217.692 54 218.637 53.792 219.746 53.792C220.474 53.792 221.15 53.896 221.774 54.104H226.662V56.132L224.452 56.288C224.799 56.9467 224.972 57.6747 224.972 58.472C224.972 59.3387 224.764 60.1273 224.348 60.838C223.932 61.5487 223.325 62.112 222.528 62.528C221.748 62.944 220.821 63.152 219.746 63.152ZM219.746 60.604C220.422 60.604 220.977 60.422 221.41 60.058C221.861 59.694 222.086 59.174 222.086 58.498C222.086 57.822 221.861 57.302 221.41 56.938C220.977 56.574 220.422 56.392 219.746 56.392C219.035 56.392 218.463 56.574 218.03 56.938C217.597 57.302 217.38 57.822 217.38 58.498C217.38 59.174 217.597 59.694 218.03 60.058C218.463 60.422 219.035 60.604 219.746 60.604ZM216.626 68.586C216.626 69.2273 216.921 69.704 217.51 70.016C218.117 70.3453 218.853 70.51 219.72 70.51C220.552 70.51 221.228 70.3367 221.748 69.99C222.268 69.6607 222.528 69.21 222.528 68.638C222.528 68.17 222.355 67.78 222.008 67.468C221.679 67.156 221.011 66.9653 220.006 66.896C219.295 66.844 218.637 66.766 218.03 66.662C217.527 66.9393 217.163 67.2427 216.938 67.572C216.73 67.9013 216.626 68.2393 216.626 68.586ZM234.835 67.312C233.725 67.312 232.815 67.1387 232.105 66.792C231.394 66.428 230.865 65.9513 230.519 65.362C230.172 64.7727 229.999 64.1227 229.999 63.412C229.999 62.216 230.467 61.2453 231.403 60.5C232.339 59.7547 233.743 59.382 235.615 59.382H238.891V59.07C238.891 58.186 238.639 57.536 238.137 57.12C237.634 56.704 237.01 56.496 236.265 56.496C235.589 56.496 234.999 56.6607 234.497 56.99C233.994 57.302 233.682 57.77 233.561 58.394H230.311C230.397 57.458 230.709 56.6433 231.247 55.95C231.801 55.2567 232.512 54.728 233.379 54.364C234.245 53.9827 235.216 53.792 236.291 53.792C238.128 53.792 239.575 54.2513 240.633 55.17C241.69 56.0887 242.219 57.3887 242.219 59.07V67H239.385L239.073 64.92C238.691 65.6133 238.154 66.1853 237.461 66.636C236.785 67.0867 235.909 67.312 234.835 67.312ZM235.589 64.712C236.542 64.712 237.279 64.4 237.799 63.776C238.336 63.152 238.674 62.3807 238.813 61.462H235.979C235.095 61.462 234.462 61.6267 234.081 61.956C233.699 62.268 233.509 62.658 233.509 63.126C233.509 63.6287 233.699 64.0187 234.081 64.296C234.462 64.5733 234.965 64.712 235.589 64.712ZM248.489 52.102C247.882 52.102 247.379 51.92 246.981 51.556C246.599 51.192 246.409 50.7327 246.409 50.178C246.409 49.6233 246.599 49.1727 246.981 48.826C247.379 48.462 247.882 48.28 248.489 48.28C249.095 48.28 249.589 48.462 249.971 48.826C250.369 49.1727 250.569 49.6233 250.569 50.178C250.569 50.7327 250.369 51.192 249.971 51.556C249.589 51.92 249.095 52.102 248.489 52.102ZM246.825 67V54.104H250.153V67H246.825ZM254.926 67V54.104H257.864L258.124 56.288C258.523 55.5253 259.095 54.9187 259.84 54.468C260.603 54.0173 261.496 53.792 262.518 53.792C264.113 53.792 265.352 54.2947 266.236 55.3C267.12 56.3053 267.562 57.7787 267.562 59.72V67H264.234V60.032C264.234 58.9227 264.009 58.0733 263.558 57.484C263.108 56.8947 262.406 56.6 261.452 56.6C260.516 56.6 259.745 56.9293 259.138 57.588C258.549 58.2467 258.254 59.1653 258.254 60.344V67H254.926ZM272.747 61.254L272.383 48.8H275.945L275.555 61.254H272.747ZM274.229 67.182C273.605 67.182 273.093 66.9913 272.695 66.61C272.313 66.2287 272.123 65.7693 272.123 65.232C272.123 64.6773 272.313 64.2093 272.695 63.828C273.093 63.4467 273.605 63.256 274.229 63.256C274.818 63.256 275.303 63.4467 275.685 63.828C276.083 64.2093 276.283 64.6773 276.283 65.232C276.283 65.7693 276.083 66.2287 275.685 66.61C275.303 66.9913 274.818 67.182 274.229 67.182Z" fill="white"/>
</svg>
